<svg width="500" height="500" viewBox="0 0 48 48" xmlns="http://www.w3.org/2000/svg" xmlns:xlink="http://www.w3.org/1999/xlink" overflow="hidden"><path d="M24 5C13.5066 5 5 13.5066 5 24 5 34.4934 13.5066 43 24 43 34.4934 43 43 34.4934 43 24 43 13.5066 34.4934 5 24 5Z" fill="#039BE5"/><path d="M26.572 29.036 31.489 29.036 32.261 24.041 26.571 24.041 26.571 21.311C26.571 19.236 27.249 17.396 29.19 17.396L32.309 17.396 32.309 13.037C31.761 12.963 30.602 12.801 28.412 12.801 23.839 12.801 21.158 15.216 21.158 20.718L21.158 24.041 16.457 24.041 16.457 29.036 21.158 29.036 21.158 42.765C22.089 42.905 23.032 43 24 43 24.875 43 25.729 42.92 26.572 42.806L26.572 29.036Z" fill="#FFFFFF"/></svg>