<svg width="500" height="500" viewBox="0 0 48 48" xmlns="http://www.w3.org/2000/svg" xmlns:xlink="http://www.w3.org/1999/xlink" overflow="hidden"><path d="M32 42 16 42C10.5 42 6 37.5 6 32L6 16C6 10.5 10.5 6 16 6L32 6C37.5 6 42 10.5 42 16L42 32C42 37.5 37.5 42 32 42Z" fill="#304FFE"/><path d="M6 16 6 32C6 37.5 10.5 42 16 42L32 42C37.5 42 42 37.5 42 32L42 16C42 15 41.9 14.1 41.6 13.2 36 8.7 28.8 6 21 6 17.3 6 13.7 6.6 10.3 7.8 7.7 9.6 6 12.6 6 16Z" fill="#304FFE" fill-opacity="0.29"/><path d="M21 8C16 8 11.4 9.2 7.2 11.2 6.4 12.7 6 14.3 6 16L6 32C6 37.5 10.5 42 16 42L32 42C37.5 42 42 37.5 42 32L42 16.2C36.5 11.1 29.1 8 21 8Z" fill="#6200EA"/><path d="M42 19C36.7 13.5 29.3 10 21 10 15.6 10 10.5 11.5 6.2 14.1 6.1 14.7 6 15.3 6 16L6 32C6 37.5 10.5 42 16 42L32 42C37.5 42 42 37.5 42 32L42 19Z" fill="#673AB7"/><path d="M42 22C37.1 15.9 29.5 12 21 12 15.4 12 10.3 13.7 6 16.6L6 32C6 37.5 10.5 42 16 42L32 42C37.5 42 42 37.5 42 32L42 22Z" fill="#8E24AA"/><path d="M42 32 42 25.4C37.5 18.6 29.8 14 21 14 15.4 14 10.2 15.9 6 19L6 32C6 37.5 10.5 42 16 42L32 42C37.5 42 42 37.5 42 32Z" fill="#C2185B"/><path d="M42 32 42 29.6C38.4 21.6 30.4 16 21 16 15.3 16 10 18.1 6 21.6L6 32C6 37.5 10.5 42 16 42L32 42C37.5 42 42 37.5 42 32Z" fill="#D81B60"/><path d="M41.6 34.8C39.7 25.2 31.2 18 21 18 15.1 18 9.8 20.4 6 24.3L6 32C6 37.5 10.5 42 16 42L32 42C36.5 42 40.4 39 41.6 34.8Z" fill="#F50057"/><path d="M39.9 38C39.4 28 31.2 20 21 20 14.9 20 9.5 22.9 6 27.4L6 32C6 37.5 10.5 42 16 42L32 42C35.2 42 38.1 40.4 39.9 38Z" fill="#FF1744"/><path d="M21 22C14.5 22 8.9 25.6 6 31L6 32C6 37.5 10.5 42 16 42L32 42C34.2 42 36.3 41.3 37.9 40 37.9 39.7 38 39.3 38 39 38 29.6 30.4 22 21 22Z" fill="#FF5722"/><path d="M21 24C14 24 8.2 28.7 6.5 35.2 7.8 39.2 11.6 42 16 42L32 42C33.4 42 34.6 41.7 35.8 41.2 35.9 40.5 36 39.7 36 39 36 30.7 29.3 24 21 24Z" fill="#FF6F00"/><path d="M21 26C14.1 26 8.5 31.3 8.1 38 9.9 40.4 12.8 42 16 42L32 42C32.6 42 33.1 41.9 33.7 41.8 33.9 40.9 34 40 34 39 34 31.8 28.2 26 21 26Z" fill="#FF9800"/><path d="M31.6 42C31.9 41 32 40 32 39 32 32.9 27.1 28 21 28 14.9 28 10 32.9 10 39 10 39.3 10 39.7 10.1 40 11.8 41.2 13.8 42 16 42L31.6 42Z" fill="#FFC107"/><path d="M21 30C16 30 12 34 12 39 12 39.8 12.1 40.6 12.3 41.3 13.4 41.8 14.7 42 16 42L29.5 42C29.8 41.1 30 40.1 30 39 30 34 26 30 21 30Z" fill="#FFD54F"/><path d="M21 32.1C17.1 32.1 14 35.2 14 39.1 14 40.1 14.2 41 14.6 41.9 15.1 42 15.5 42 16 42L27.4 42C27.8 41.1 28 40.1 28 39.1 28 35.2 24.9 32.1 21 32.1Z" fill="#FFE082"/><path d="M21 34.1C18.2 34.1 16 36.3 16 39.1 16 40.2 16.4 41.2 17 42L25 42C25.6 41.2 26 40.2 26 39.1 26 36.3 23.8 34.1 21 34.1Z" fill="#FFECB3"/><path d="M30 38 18 38C13.6 38 10 34.4 10 30L10 18C10 13.6 13.6 10 18 10L30 10C34.4 10 38 13.6 38 18L38 30C38 34.4 34.4 38 30 38ZM18 12C14.7 12 12 14.7 12 18L12 30C12 33.3 14.7 36 18 36L30 36C33.3 36 36 33.3 36 30L36 18C36 14.7 33.3 12 30 12L18 12Z" fill="#FFFFFF"/><path d="M24 31C20.1 31 17 27.9 17 24 17 20.1 20.1 17 24 17 27.9 17 31 20.1 31 24 31 27.9 27.9 31 24 31ZM24 19C21.2 19 19 21.2 19 24 19 26.8 21.2 29 24 29 26.8 29 29 26.8 29 24 29 21.2 26.8 19 24 19ZM32 16C32 16.6 31.6 17 31 17 30.4 17 30 16.6 30 16 30 15.4 30.4 15 31 15 31.6 15 32 15.4 32 16Z" fill="#FFFFFF"/></svg>