<svg width="500" height="500" viewBox="0 0 48 48" xmlns="http://www.w3.org/2000/svg" xmlns:xlink="http://www.w3.org/1999/xlink" overflow="hidden"><path d="M42 37C42 39.762 39.762 42 37 42L11 42C8.239 42 6 39.762 6 37L6 11C6 8.238 8.239 6 11 6L37 6C39.762 6 42 8.238 42 11L42 37Z" fill="#0288D1"/><path d="M12 19 17 19 17 36 12 36ZM14.485 17 14.457 17C12.965 17 12 15.888 12 14.499 12 13.08 12.995 12 14.514 12 16.035 12 16.972 13.08 17 14.499 17 15.887 16.035 17 14.485 17ZM36 36 31 36 31 26.901C31 24.703 29.775 23.203 27.808 23.203 26.307 23.203 25.495 24.215 25.101 25.193 24.957 25.543 25 26.511 25 27L25 36 20 36 20 19 25 19 25 21.616C25.721 20.5 26.85 19 29.738 19 33.316 19 35.999 21.25 35.999 26.274L36 36 36 36Z" fill="#FFFFFF"/></svg>