<svg width="500" height="500" viewBox="0 0 48 48" xmlns="http://www.w3.org/2000/svg" xmlns:xlink="http://www.w3.org/1999/xlink" overflow="hidden"><path d="M6 6 42 6 42 42 6 42Z" fill="#37474F"/><path d="M34.146 16.229 36 14.375 36 14 29.364 14 24.444 25.791 19.26 14 12 14 12 14.375 13.884 16.636C13.959 16.726 14 16.839 14 16.956L14 29.242C14 29.425 13.937 29.602 13.823 29.744L11.5 32.624 11.5 33 18.5 33 18.5 32.625 16.175 29.719C16.062 29.577 16 29.401 16 29.219L16 18.725 22.365 33 23.625 33 29 20.083 29 30.168C29 30.301 28.947 30.428 28.854 30.521L26.75 32.625 26.75 33 36 33 36 32.625 34.146 30.771C34.053 30.678 34 30.551 34 30.418L34 16.582C34 16.449 34.053 16.322 34.146 16.229Z" fill="#FFFFFF"/></svg>