<svg width="500" height="500" viewBox="0 0 48 48" xmlns="http://www.w3.org/2000/svg" xmlns:xlink="http://www.w3.org/1999/xlink" overflow="hidden"><path d="M42 12.429C40.677 13.015 39.254 13.406 37.753 13.591 39.279 12.685 40.453 11.24 41.004 9.533 39.576 10.37 37.994 10.985 36.311 11.309 34.967 9.884 33.05 9 30.926 9 26.846 9 23.539 12.278 23.539 16.32 23.539 16.892 23.606 17.449 23.732 17.99 17.594 17.682 12.15 14.764 8.508 10.336 7.868 11.418 7.508 12.685 7.508 14.022 7.508 16.563 8.809 18.8 10.793 20.118 9.582 20.081 8.442 19.744 7.444 19.204 7.444 19.226 7.444 19.259 7.444 19.29 7.444 22.841 9.991 25.798 13.367 26.471 12.75 26.64 12.098 26.734 11.426 26.734 10.949 26.734 10.484 26.68 10.034 26.599 10.974 29.501 13.701 31.622 16.932 31.685 14.404 33.645 11.22 34.819 7.758 34.819 7.16 34.819 6.575 34.785 5.997 34.715 9.268 36.786 13.152 38 17.321 38 30.906 38 38.338 26.844 38.338 17.166 38.338 16.849 38.328 16.533 38.313 16.221 39.763 15.197 41.013 13.905 42 12.429" fill="#03A9F4"/></svg>