<svg xmlns="http://www.w3.org/2000/svg" xmlns:xlink="http://www.w3.org/1999/xlink" width="1536" height="952" viewBox="0 0 1536 952"><defs><linearGradient id="a" x1="0.457" y1="0.993" x2="0.66" y2="-0.288" gradientUnits="objectBoundingBox"><stop offset="0" stop-color="#6f8083"/><stop offset="1" stop-color="#141414"/><stop offset="1"/></linearGradient><clipPath id="c"><path d="M76.424,752.32c89.89,54,407.07,75.82,777,58.57s612.56-72,572.31-192.73-170.61-130.33-147.61-270.24,40.92-277.24-93.24-329-308.15,13-415.48,70.5-297.57,170.41-357,145.49-121.1-95.67-229.49-3C-68.136,446.58-16.106,696.73,76.424,752.32Z" transform="translate(0.666 0)" fill="url(#a)"/></clipPath><linearGradient id="d" x1="0.498" y1="0.989" x2="0.511" y2="0.08" xlink:href="#a"/><linearGradient id="e" x1="0.5" x2="0.5" y2="1" gradientUnits="objectBoundingBox"><stop offset="0" stop-color="#7d42a6"/><stop offset="0.35" stop-color="#643ba3"/><stop offset="0.75" stop-color="#4e35a0"/><stop offset="1" stop-color="#46339f"/></linearGradient><linearGradient id="f" y1="0.5" x2="1" y2="0.5" gradientUnits="objectBoundingBox"><stop offset="0" stop-color="#141414"/><stop offset="0.05" stop-color="#141414"/><stop offset="0.23" stop-color="#6f8083"/><stop offset="0.39" stop-color="#bdc2bd"/><stop offset="0.51" stop-color="#bdc2bd"/><stop offset="0.64" stop-color="#6f8083"/><stop offset="0.85" stop-color="#141414"/><stop offset="1" stop-color="#141414"/></linearGradient><linearGradient id="g" y1="0.517" x2="1" y2="0.517" gradientUnits="objectBoundingBox"><stop offset="0" stop-color="#141414"/><stop offset="0.62" stop-color="#37007b"/><stop offset="0.79" stop-color="#26006e"/><stop offset="1" stop-color="#141414"/></linearGradient><linearGradient id="h" x1="0.5" y1="1.018" x2="0.5" y2="0.015" gradientUnits="objectBoundingBox"><stop offset="0" stop-color="#6f8083"/><stop offset="0.841" stop-color="#141414"/><stop offset="0.908" stop-color="#141414"/><stop offset="1" stop-color="#141414"/></linearGradient><linearGradient id="i" x1="1" y1="-0.006" x2="0" y2="-0.006" gradientUnits="objectBoundingBox"><stop offset="0" stop-color="#663873"/><stop offset="0.02" stop-color="#141414"/><stop offset="0.62" stop-color="#f0f0ff"/><stop offset="0.78" stop-color="#bd8fb0"/><stop offset="0.93" stop-color="#6f8083"/><stop offset="1" stop-color="#141414"/></linearGradient><linearGradient id="j" y1="0.502" x2="1" y2="0.502" gradientUnits="objectBoundingBox"><stop offset="0" stop-color="#6f8083"/><stop offset="0.51" stop-color="#141414"/><stop offset="1" stop-color="#6f8083"/></linearGradient><linearGradient id="k" x1="1" y1="0.5" x2="0" y2="0.5" gradientUnits="objectBoundingBox"><stop offset="0" stop-color="#141414"/><stop offset="0.02" stop-color="#141414"/><stop offset="0.62" stop-color="#141414"/><stop offset="0.78" stop-color="#141414"/><stop offset="0.93" stop-color="#141414"/><stop offset="1" stop-color="#141414"/></linearGradient><linearGradient id="l" x1="-0.004" y1="0.63" x2="0.994" y2="0.46" xlink:href="#a"/><linearGradient id="m" y1="0.5" x2="1" y2="0.5" gradientUnits="objectBoundingBox"><stop offset="0" stop-color="#141414"/><stop offset="0.661" stop-color="#6e5e5e"/><stop offset="1" stop-color="#141414"/></linearGradient><linearGradient id="n" y1="0.5" x2="1" y2="0.5" gradientUnits="objectBoundingBox"><stop offset="0" stop-color="#504e4e"/><stop offset="1" stop-color="#141414"/><stop offset="1"/></linearGradient><linearGradient id="o" y1="0.5" x2="1" y2="0.5" gradientUnits="objectBoundingBox"><stop offset="0" stop-color="#4b4b4b"/><stop offset="1" stop-color="#141414"/><stop offset="1"/></linearGradient><linearGradient id="p" x1="-0.001" y1="0.5" x2="1" y2="0.5" gradientUnits="objectBoundingBox"><stop offset="0" stop-color="#4d4a4a"/><stop offset="1" stop-color="#141414"/><stop offset="1"/></linearGradient><linearGradient id="q" y1="0.501" x2="1" y2="0.501" gradientUnits="objectBoundingBox"><stop offset="0" stop-color="#4a4949"/><stop offset="1" stop-color="#141414"/><stop offset="1"/></linearGradient><linearGradient id="r" y1="0.5" x2="1" y2="0.5" gradientUnits="objectBoundingBox"><stop offset="0" stop-color="#141414"/><stop offset="0.611" stop-color="#635d5d"/><stop offset="1" stop-color="#141414"/></linearGradient><linearGradient id="s" y1="0.5" x2="1" y2="0.5" gradientUnits="objectBoundingBox"><stop offset="0" stop-color="#575555"/><stop offset="1" stop-color="#141414"/><stop offset="1"/></linearGradient><linearGradient id="t" y1="0.5" x2="1.001" y2="0.5" gradientUnits="objectBoundingBox"><stop offset="0" stop-color="#605f5f"/><stop offset="1" stop-color="#141414"/><stop offset="1"/></linearGradient><linearGradient id="u" y1="0.503" x2="1" y2="0.503" gradientUnits="objectBoundingBox"><stop offset="0" stop-color="#575656"/><stop offset="1" stop-color="#141414"/><stop offset="1"/></linearGradient><linearGradient id="v" y1="0.501" x2="1" y2="0.501" gradientUnits="objectBoundingBox"><stop offset="0" stop-color="#414141"/><stop offset="1" stop-color="#141414"/><stop offset="1"/></linearGradient><linearGradient id="w" y1="0.5" x2="1" y2="0.5" gradientUnits="objectBoundingBox"><stop offset="0" stop-color="#141414"/><stop offset="1" stop-color="#373232"/><stop offset="1"/></linearGradient><linearGradient id="x" y1="0.501" x2="0.999" y2="0.501" gradientUnits="objectBoundingBox"><stop offset="0" stop-color="#606060"/><stop offset="1" stop-color="#141414"/><stop offset="1"/></linearGradient><linearGradient id="y" y1="0.498" x2="1" y2="0.498" gradientUnits="objectBoundingBox"><stop offset="0" stop-color="#3a3939"/><stop offset="0.987" stop-color="#141414"/><stop offset="1"/></linearGradient><linearGradient id="z" y1="0.499" x2="1" y2="0.499" gradientUnits="objectBoundingBox"><stop offset="0" stop-color="#656262"/><stop offset="1" stop-color="#141414"/><stop offset="1"/></linearGradient><linearGradient id="aa" y1="0.5" x2="1" y2="0.5" gradientUnits="objectBoundingBox"><stop offset="0" stop-color="#5e5e5e"/><stop offset="1" stop-color="#141414"/><stop offset="1"/></linearGradient><linearGradient id="ab" x1="0.5" x2="0.5" y2="1" gradientUnits="objectBoundingBox"><stop offset="0" stop-color="#e2cb95"/><stop offset="1" stop-color="#f2deaf"/></linearGradient><linearGradient id="ac" x1="0.635" x2="0.265" y2="1.19" gradientUnits="objectBoundingBox"><stop offset="0" stop-color="#1dacff"/><stop offset="0.07" stop-color="#20a9fb"/><stop offset="0.14" stop-color="#28a0ef"/><stop offset="0.21" stop-color="#3690da"/><stop offset="0.28" stop-color="#497bbe"/><stop offset="0.35" stop-color="#625f99"/><stop offset="0.35" stop-color="#655c95"/><stop offset="0.43" stop-color="#6f5f91"/><stop offset="0.57" stop-color="#896886"/><stop offset="0.74" stop-color="#b37774"/><stop offset="0.94" stop-color="#ed8c5c"/><stop offset="1" stop-color="#ff9254"/></linearGradient><linearGradient id="ad" x1="0.84" y1="-0.179" x2="0.317" y2="0.802" xlink:href="#ac"/><linearGradient id="ae" x1="0.233" y1="1.301" x2="0.775" y2="-0.804" gradientUnits="objectBoundingBox"><stop offset="0" stop-color="#ffefc2"/><stop offset="0" stop-color="#ed8c5c"/><stop offset="0.35" stop-color="#ffefc2"/><stop offset="0.57" stop-color="#ffefc2"/><stop offset="0.74" stop-color="#ffefc2"/><stop offset="1" stop-color="#ff9254"/></linearGradient><linearGradient id="af" x1="0.615" y1="0.053" x2="0.42" y2="1.037" gradientUnits="objectBoundingBox"><stop offset="0" stop-color="#f5f5f5"/><stop offset="0.01" stop-color="#f5f5f5"/><stop offset="0.48" stop-color="#f5f5f5"/><stop offset="0.82" stop-color="#f0f0ff"/><stop offset="1" stop-color="#fec52a"/></linearGradient><linearGradient id="ag" y1="0.5" x2="1" y2="0.5" gradientUnits="objectBoundingBox"><stop offset="0" stop-color="#6f8083"/><stop offset="1" stop-color="#bdc2db"/><stop offset="1"/></linearGradient><linearGradient id="ah" y1="0.5" x2="1" y2="0.5" gradientUnits="objectBoundingBox"><stop offset="0" stop-color="#d30d0d"/><stop offset="0.197" stop-color="#d61d1d"/><stop offset="0.35" stop-color="#d44040"/><stop offset="0.523" stop-color="#c24242"/><stop offset="0.757" stop-color="#c83131"/><stop offset="1" stop-color="#d30d0d"/></linearGradient><linearGradient id="ai" x1="0.433" y1="1.315" x2="0.653" y2="-1.931" gradientUnits="objectBoundingBox"><stop offset="0" stop-color="#d4855f"/><stop offset="0.13" stop-color="#d4855f"/><stop offset="0.29" stop-color="#d4855f"/><stop offset="0.46" stop-color="#d4855f"/><stop offset="0.65" stop-color="#d4855f"/><stop offset="0.84" stop-color="#d4855f"/><stop offset="1" stop-color="#d4855f"/></linearGradient><linearGradient id="aj" x1="0.422" y1="1.541" x2="0.573" y2="-0.28" gradientUnits="objectBoundingBox"><stop offset="0" stop-color="#f5f5f5"/><stop offset="0.12" stop-color="#d4855f"/><stop offset="0.25" stop-color="#d4855f"/><stop offset="0.37" stop-color="#c58b6f"/><stop offset="0.5" stop-color="#d89676"/><stop offset="0.63" stop-color="#d4855f"/><stop offset="0.76" stop-color="#d4855f"/><stop offset="0.88" stop-color="#d4855f"/><stop offset="1" stop-color="#d4855f"/></linearGradient><linearGradient id="ak" y1="0.5" x2="1" y2="0.5" gradientUnits="objectBoundingBox"><stop offset="0" stop-color="#d30d0d"/><stop offset="0.18" stop-color="#cb4747"/><stop offset="0.548" stop-color="#d43131"/><stop offset="0.853" stop-color="#bf1313"/><stop offset="1" stop-color="#c51010"/><stop offset="1" stop-color="#006aff"/></linearGradient><linearGradient id="al" x1="0.272" y1="1.179" x2="1.199" y2="-0.537" gradientUnits="objectBoundingBox"><stop offset="0" stop-color="#ffefc2"/><stop offset="0.138" stop-color="#fff8e5"/><stop offset="0.25" stop-color="#ffefc2"/><stop offset="0.397" stop-color="#ffefc2"/><stop offset="0.552" stop-color="#efd079"/><stop offset="0.63" stop-color="#f6d7c5"/><stop offset="0.76" stop-color="#ffefc2"/><stop offset="0.88" stop-color="#ffefc2"/><stop offset="1" stop-color="#ffefc2"/></linearGradient><linearGradient id="am" y1="0.5" x2="1" y2="0.5" gradientUnits="objectBoundingBox"><stop offset="0" stop-color="#1dacff"/><stop offset="0.24" stop-color="#1ba8ff"/><stop offset="0.49" stop-color="#169cff"/><stop offset="0.74" stop-color="#0d87ff"/><stop offset="0.99" stop-color="#006bff"/><stop offset="1" stop-color="#006aff"/></linearGradient><linearGradient id="an" x1="0.906" y1="1.222" x2="0.055" y2="0.177" gradientUnits="objectBoundingBox"><stop offset="0" stop-color="#9f2828"/><stop offset="0.13" stop-color="#912828"/><stop offset="0.29" stop-color="#d52c2c"/><stop offset="0.46" stop-color="#e23636"/><stop offset="0.65" stop-color="#e92424"/><stop offset="0.84" stop-color="#df1616"/><stop offset="1" stop-color="#d30d0d"/></linearGradient><linearGradient id="ao" y1="0.5" x2="1" y2="0.5" gradientUnits="objectBoundingBox"><stop offset="0" stop-color="#f5f5f5"/><stop offset="0.14" stop-color="#ebe1e1"/><stop offset="0.27" stop-color="#f5f5f5"/><stop offset="0.41" stop-color="#f5f5f5"/><stop offset="0.55" stop-color="#f5f5f5"/><stop offset="0.7" stop-color="#f0f0ff"/><stop offset="0.871" stop-color="#f0f0ff"/><stop offset="0.954" stop-color="#e2e2e2"/><stop offset="1" stop-color="#c5c5c5"/></linearGradient><linearGradient id="ap" x1="0.386" y1="1.321" x2="0.762" y2="-1.379" xlink:href="#ai"/><linearGradient id="aq" x1="1.573" y1="0.207" x2="-1.971" y2="1.084" gradientUnits="objectBoundingBox"><stop offset="0" stop-color="#d4855f"/><stop offset="0.13" stop-color="#d98e6a"/><stop offset="0.29" stop-color="#d18f6f"/><stop offset="0.46" stop-color="#e19773"/><stop offset="0.65" stop-color="#db8e6a"/><stop offset="0.84" stop-color="#e57a46"/><stop offset="1" stop-color="#e8601e"/></linearGradient><linearGradient id="ar" x1="-0.001" y1="0.5" x2="1" y2="0.5" gradientUnits="objectBoundingBox"><stop offset="0" stop-color="#d30d0d"/><stop offset="0.056" stop-color="#a71717"/><stop offset="0.38" stop-color="#b21c1c"/><stop offset="0.924" stop-color="#a40e0e"/><stop offset="0.99" stop-color="#d30d0d"/><stop offset="1" stop-color="#006aff"/></linearGradient><linearGradient id="as" x1="0.001" y1="0.499" x2="1.001" y2="0.499" gradientUnits="objectBoundingBox"><stop offset="0" stop-color="#fff"/><stop offset="0.439" stop-color="#ffefc2"/><stop offset="0.565" stop-color="#ffefc2"/><stop offset="0.741" stop-color="#ffefc2"/><stop offset="1" stop-color="#f9d87b"/></linearGradient><linearGradient id="at" x1="0.945" y1="-0.017" x2="-0.058" y2="1.148" gradientUnits="objectBoundingBox"><stop offset="0" stop-color="#fff4d4"/><stop offset="0.335" stop-color="#f9f6ee"/><stop offset="0.76" stop-color="#ffefc2"/><stop offset="0.88" stop-color="#ffefc2"/><stop offset="1" stop-color="#ffefc2"/></linearGradient><linearGradient id="au" y1="0.501" x2="1" y2="0.501" gradientUnits="objectBoundingBox"><stop offset="0" stop-color="#6f8083"/><stop offset="1" stop-color="#151515"/><stop offset="1"/></linearGradient><linearGradient id="av" y1="0.499" x2="1" y2="0.499" gradientUnits="objectBoundingBox"><stop offset="0" stop-color="#ee5116"/><stop offset="1" stop-color="#f09c6d"/><stop offset="1"/></linearGradient><linearGradient id="aw" x1="0.343" y1="1.02" x2="0.757" y2="-0.816" gradientUnits="objectBoundingBox"><stop offset="0" stop-color="#fcdf8e"/><stop offset="0.12" stop-color="#ffefc2"/><stop offset="0.25" stop-color="#ffefc2"/><stop offset="0.37" stop-color="#ffefc2"/><stop offset="0.5" stop-color="#ffefc2"/><stop offset="0.63" stop-color="#ffefc2"/><stop offset="0.76" stop-color="#ffefc2"/><stop offset="0.88" stop-color="#ffefc2"/><stop offset="1" stop-color="#fee190"/></linearGradient><linearGradient id="ax" x1="0.435" y1="0.811" x2="0.707" y2="-0.384" gradientUnits="objectBoundingBox"><stop offset="0" stop-color="#ffefc2"/><stop offset="0.12" stop-color="#ffefc2"/><stop offset="0.25" stop-color="#ffefc2"/><stop offset="0.37" stop-color="#f9de90"/><stop offset="0.5" stop-color="#f9d97e"/><stop offset="0.63" stop-color="#fed665"/><stop offset="0.76" stop-color="#ffefc2"/><stop offset="0.88" stop-color="#ffefc2"/><stop offset="1" stop-color="#ffefc2"/></linearGradient><linearGradient id="ay" y1="0.5" x2="1" y2="0.5" gradientUnits="objectBoundingBox"><stop offset="0" stop-color="#f5f5f5"/><stop offset="0.004" stop-color="#f5f5f5"/><stop offset="0.05" stop-color="#fbd3d3"/><stop offset="0.075" stop-color="#d4855f"/><stop offset="0.389" stop-color="#f5f5f5"/><stop offset="0.536" stop-color="#f5f5f5"/><stop offset="1" stop-color="#d4855f"/></linearGradient><linearGradient id="az" x1="0.709" y1="3.245" x2="0.388" y2="-1.54" gradientUnits="objectBoundingBox"><stop offset="0" stop-color="#ecc862"/><stop offset="0" stop-color="#ffefc2"/><stop offset="0.017" stop-color="#ffefc2"/><stop offset="0.146" stop-color="#f8ce5a"/><stop offset="0.25" stop-color="#f9da81"/><stop offset="0.326" stop-color="#ffefc2"/><stop offset="0.439" stop-color="#f8e3a7"/><stop offset="0.544" stop-color="#ffefc2"/><stop offset="0.669" stop-color="#e8c76c"/><stop offset="0.88" stop-color="#fcbb06"/><stop offset="1" stop-color="#cca73f"/></linearGradient><filter id="ba" x="742" y="306" width="288" height="305" filterUnits="userSpaceOnUse"><feOffset dx="16" dy="8" input="SourceAlpha"/><feGaussianBlur stdDeviation="4" result="bb"/><feFlood flood-color="#141414" flood-opacity="0.161"/><feComposite operator="in" in2="bb"/><feComposite in="SourceGraphic"/></filter><clipPath id="bd"><rect width="1536" height="952"/></clipPath></defs><g id="bc" clip-path="url(#bd)"><rect width="1536" height="952" fill="#fff"/><g transform="translate(64 68)"><path d="M76.424,752.32c89.89,54,407.07,75.82,777,58.57s612.56-72,572.31-192.73-170.61-130.33-147.61-270.24,40.92-277.24-93.24-329-308.15,13-415.48,70.5-297.57,170.41-357,145.49-121.1-95.67-229.49-3C-68.136,446.58-16.106,696.73,76.424,752.32Z" transform="translate(0.666 0)" fill="url(#a)"/><g clip-path="url(#c)"><g transform="translate(-83 1047.83)"><path d="M1261.74,237.4s-419-177-508-207c-29.68-10-151,55-256.87,92.55C417.62,58.834,335.01-1.046,304.29.014,211.35,3.314,0,221.524,0,221.524l673,52.9s-12.44-11.37-32.84-29.48Z" transform="translate(90.24 0.086)" fill="url(#d)"/><g transform="translate(13 204)"><rect width="1605.51" height="349.34" transform="translate(1606.51 951.54) rotate(180)" fill="url(#e)"/><rect width="1605.51" height="401.67" transform="translate(1594.51 927.86) rotate(180)" fill="url(#f)" style="mix-blend-mode:multiply;isolation:isolate"/><rect width="1605.51" height="66.04" transform="translate(1620.51 734.19) rotate(180)" opacity="0.83" fill="url(#g)"/><path d="M0,0H1605.51V66.38H0Z" transform="translate(1606.51 719.19) rotate(180)" opacity="0.27" fill="url(#h)"/><path d="M1605.51,0V6.17H0V0" transform="translate(1 0.08)" opacity="0.2" fill="url(#i)"/><rect width="1605.51" height="6.44" transform="translate(1606.51 111.64) rotate(180)" fill="url(#j)"/><path d="M0,37.53V0H210.13V37.53Z" transform="translate(1396.43 2.49)" fill="#141414"/><path d="M0,37.53V0H256.17V37.53Z" transform="translate(1147.67 2.49)" fill="#141414"/><path d="M0,37.53V0H256.18V37.53Z" transform="translate(898.9 2.49)" fill="#141414"/><path d="M0,37.53V0H256.18V37.53Z" transform="translate(650.13 2.49)" fill="#141414"/><path d="M0,37.53V0H256.17V37.53Z" transform="translate(401.37 2.49)" fill="#141414"/><path d="M0,37.53V0H256.18V37.53Z" transform="translate(152.6 2.49)" fill="#141414"/><path d="M0,37.53V0H159V37.53Z" transform="translate(0.98 2.49)" fill="#141414"/><rect width="2.52" height="22.72" transform="translate(1396.44 32.6) rotate(180)" fill="url(#k)"/><path d="M0,0H2.52V22.72H0Z" transform="translate(411.95 32.6) rotate(180)" fill="#141414"/></g></g></g><path d="M474,31.176c.65,20.9-104.927,41.075-235.816,45.115S.663,66.7,0,45.823,104.95,4.748,235.82.709,473.347,10.311,474,31.176Z" transform="translate(560 700)" opacity="0.5" fill="url(#l)" style="mix-blend-mode:multiply;isolation:isolate"/><g transform="translate(889 621)" style="mix-blend-mode:multiply;isolation:isolate"><path d="M0,21.752s.89,8,15.74,6.4c11.27-1.24,24.7-2.4,32.83-1.14s28.63,1.49,39.11-6.63,8.82-18.66,4.09-20-18.53,1-23.88,4.61-16.39,9.09-27.19,8.08S1.23,5.792,0,21.752Z" transform="translate(0.23 105.488)" fill="url(#m)"/><path d="M0,5.657s0,4.76,5.45,4.58,9.43-5.16,8.78-8.08S3.83-1.673,0,5.657Z" transform="translate(97.2 99.063)" fill="url(#n)"/><path d="M0,2.591s.45,2.8,4.64,3.23,5-2.81,4.68-4.28S2-1.439,0,2.591Z" transform="translate(100.3 111.499)" fill="url(#o)"/><path d="M7.636,3.65c-.36,1.38-2.34,2.07-4.43,1.53S-.3,3.09.056,1.71,2.4-.35,4.486.18,7.976,2.27,7.636,3.65Z" transform="translate(98.004 119.93)" fill="url(#p)"/><path d="M6.952,3.535c-.35,1.38-2.18,2.1-4.09,1.62s-3.16-2-2.8-3.39,2.18-2.1,4.08-1.61S7.3,2.155,6.952,3.535Z" transform="translate(91.948 125.645)" fill="url(#q)"/><path d="M0,12.154s0,8.77,14.94,8.09c11.33-.52,24.82.31,32.75,2.46s28.3,4.63,39.61-2.29S98.11,2.824,93.56.974s-18.53-1-24.24,2-17.29,7.24-27.92,5S2.98-3.576,0,12.154Z" transform="translate(244.7 82.866)" fill="url(#r)"/><path d="M.012,4.645s-.49,4.74,4.92,5.16,9.93-4.1,9.61-7.07S4.622-2.225.012,4.645Z" transform="translate(343.538 78.625)" fill="url(#s)"/><path d="M0,2.066S.14,4.906,4.25,5.8s5.28-2.25,5.12-3.74S2.43-1.714,0,2.066Z" transform="translate(345.61 90.854)" fill="url(#t)"/><path d="M7.431,4.182c-.5,1.33-2.55,1.79-4.57,1s-3.25-2.46-2.75-3.79,2.55-1.8,4.57-1S7.931,2.842,7.431,4.182Z" transform="translate(342.439 98.768)" fill="url(#u)"/><path d="M6.782,3.977c-.5,1.34-2.4,1.85-4.24,1.16s-2.92-2.33-2.42-3.67,2.4-1.85,4.24-1.16S7.282,2.7,6.782,3.977Z" transform="translate(335.778 103.793)" fill="url(#v)"/><path d="M0,28.223s0-9.29,12.85-11.12c11.23-1.59,24.17-5.64,31.46-9.44s26.64-10.6,39.17-6.27,14.34,14.85,10.29,17.64-17.88,5-24.09,3.28-18.45-3.35-28.35,1.08S6.28,42.943,0,28.223Z" transform="translate(113.54 6.887)" fill="url(#w)"/><path d="M.2,6.493s-1.5-4.53,3.69-6.1,10.58,1.87,10.91,4.85S6.181,12.2.2,6.493Z" transform="translate(212.409 18.847)" fill="url(#x)"/><path d="M.018,5.118s-.47-2.8,3.36-4.56,5.64,1.07,5.8,2.56S3.208,8.268.018,5.118Z" transform="translate(212.522 10.372)" fill="url(#y)"/><path d="M6.847.9c-.78-1.19-2.88-1.2-4.69,0S-.483,4,.287,5.186s2.88,1.21,4.69,0S7.627,2.1,6.847.9Z" transform="translate(207.703 3.864)" fill="url(#z)"/><path d="M6.279.962c-.77-1.19-2.74-1.29-4.39-.22s-2.35,2.91-1.57,4.1,2.74,1.3,4.39.22S7.059,2.162,6.279.962Z" transform="translate(200.091 0.658)" fill="url(#aa)"/></g><path d="M8.157,17.682S1.751,37.921.685,42.087s-.857,5.374.408,10.149,7.412,28.7,9.533,34.085a18.4,18.4,0,0,0,9.314,9.99c2.939,1.259,13.508.529,15.889-.11a34.291,34.291,0,0,0,4.244-1.439s-.229-4.445-2.72-5.994-9.673-2.907-9.673-2.907S22.92,76.421,22.7,71.736s2.989-22.976,4.562-25.424S47.187,23.606,53.164,15.9A113.225,113.225,0,0,0,62,3S52.576.051,45.593,0,28.658,2.528,25.012,4.856,8.157,17.682,8.157,17.682Z" transform="translate(692 638)" fill="#d2d2d2"/><path d="M8.157,17.682S1.751,37.921.685,42.087s-.857,5.374.408,10.149,7.412,28.7,9.533,34.085a18.4,18.4,0,0,0,9.314,9.99c2.939,1.259,13.508.529,15.889-.11a34.291,34.291,0,0,0,4.244-1.439s-.229-4.445-2.72-5.994-9.673-2.907-9.673-2.907S22.92,76.421,22.7,71.736s2.989-22.976,4.562-25.424S47.187,23.606,53.164,15.9A113.225,113.225,0,0,0,62,3S52.576.051,45.593,0,28.658,2.528,25.012,4.856,8.157,17.682,8.157,17.682Z" transform="translate(692 638)" fill="#f2d99e" style="mix-blend-mode:multiply;isolation:isolate"/><path d="M0,18.409s4.23-1.69,12.058-7.2A123.47,123.47,0,0,0,25.764,0l8.611,2.09S50.543,21.169,52.462,25.349s2.01,6.4.452,10.41-8.139,13-10.109,16.359-4.17,8.16-5.476,7.87-8.4-6.87-8.039-10.67a21.82,21.82,0,0,1,2.1-7.08,57.1,57.1,0,0,1,2.221-6.35,26.833,26.833,0,0,1,2.331-4.12S21.1,23.209,14.449,21.039A66.992,66.992,0,0,0,0,18.409Z" transform="translate(825 635)" fill="url(#ab)"/><path d="M327.446,211.537s9.064,2.524,15.917,1.733a76.174,76.174,0,0,0,9.894-1.613s10-1.132,11.235-2.5,0-6.33-1.351-8.283-2.361-3.275-2.361-3.275-12.766-25.271-12.426-29.278,4-14.153,1.891-17.969-7.363-16.627-15.307-24.49-20.429-18.16-26.222-22.036-18.909-12.9-26.382-15.846-28.013-12.42-31.354-14.7-12.9-10.727-23.01-10.727-34.015,7.723-45.8,10.016-32.315,3.946-44.49,3.766-34.216,1.422-44.94,4.007-21.9,7.853-24.791,7.322-21.94-12.08-24.621-15.3S24.759,44.224,22.538,37.764s-9.324-27.635-9.724-30.91S9.682-2.161,8.682.844s3.211,22.807,7.1,38.493,8.334,25.632,15.617,36.6,22.16,25.712,22.16,25.712-8,21.295-13.3,34.827-6.293,17.378-15.447,29.538S1.669,199.617.928,203.233s-1.2,19.191-.75,29.117,2.831,25.522,3.071,26.984,3.362,4.287,7.864,5.379,13.616-1.222,15.127-2.133l1.511-.911s-1.211-6.471-4.672-7.242-7.223-1.482-7.223-1.482,3-22.647,4.652-28.587,9.174-19.321,12.876-21.094,27.532-13.823,39.658-21.134a132.366,132.366,0,0,0,24.7-18.821c5.172-5.008,15.137-13.3,28.453-14.313s28.593,2.835,34.436,5.008,10.145,4.007,10.145,4.007-3.8,4.287-3.692,5.94.52,12.41,1.261,25.121,2.441,36.419,3.292,40.606,3,9.345,5.823,10.217,19.369-1.663,20.449-3.175-.65-5.008-3.081-6.661a77.376,77.376,0,0,0-7.113-3.836s-.34-25.6,1.481-30.73,3.512-7.072,3.9-9.8,4-11.158,5.943-11.469,22.17-6.951,26.172-8.945,22.38-17.4,22.38-17.4a144.918,144.918,0,0,1,15.877,3,65.631,65.631,0,0,1,13.646,5.1,35.617,35.617,0,0,0,3.342,10.287,40.33,40.33,0,0,0,7.6,9.916Z" transform="translate(606 489)" fill="#ffefc2"/><path d="M.375,1a10,10,0,0,1,.25-1,2.47,2.47,0,0,0-.25,1Z" transform="translate(773 652)" fill="url(#ac)" style="mix-blend-mode:multiply;isolation:isolate"/><path d="M114,14.02s-8.67-.67-36.67-8.665S40.67.687,40.67.687,38.5,8.023,28,22.015C16,38.007,0,50,0,50l3.53-.74c1.3-.75,2.53-1.459,3.66-2.139a132.283,132.283,0,0,0,24.7-18.78c5.17-5,15.13-13.273,28.44-14.282s28.58,2.828,34.42,5c4.63,1.749,8.28,3.228,9.59,3.778A50.64,50.64,0,0,1,114,14.02Z" transform="translate(672 624)" fill="#f9af00" opacity="0.09" style="mix-blend-mode:multiply;isolation:isolate"/><path d="M49.9,94S61.287,91.4,68,85.244c-4.088,1.429-7.274,2.469-8.647,2.229C56.438,86.953,37.381,75.418,34.7,72.2S16.1,44.132,13.877,37.685,4.539,10.108,4.138,6.839,1-2.157,0,.842C0,.842,6.442,38.335,19.467,60A123.232,123.232,0,0,0,49.9,94Z" transform="translate(615 489)" fill="url(#ad)" style="mix-blend-mode:multiply;isolation:isolate"/><path d="M29.63,19.642a35.4,35.4,0,0,0,3.354,10.266,40.274,40.274,0,0,0,7.631,9.9l39.53,35.315s9.1,2.519,15.975,1.729a77.908,77.908,0,0,0,9.88-1.6c-31.638-7-57.985-46.65-60.154-52.587C43.175,15.323,32.462,9.326,32.462,9.326L8.364,0,0,11.575a146.178,146.178,0,0,1,15.935,3A66.105,66.105,0,0,1,29.63,19.642Z" transform="translate(853 625)" fill="#e4e49b" opacity="0.5" style="mix-blend-mode:multiply;isolation:isolate"/><path d="M40,20.106c-6.116-4.14-18.409-12.53-25.545-15.353C11.916,3.748,7.869,1.979,3.461,0,6.02,10.52.543,29.139.023,36.464c-.67,9.385,13.322,7.375,21.318,2.01C26.308,35.127,32.3,26.135,40,20.106Z" transform="translate(874 572)" fill="#ffefc2" style="mix-blend-mode:multiply;isolation:isolate"/><path d="M174,15.612a104.2,104.2,0,0,1-9.457-4.88C161.174,8.447,151.617,0,141.478,0s-34.1,7.726-45.909,10.02-32.391,3.948-44.6,3.768S16.677,15.211,5.927,17.8c-2.006.471-4.011,1-5.927,1.643,5.134,8.507,16.045,21.834,34.477,23.628,27.417,2.675,30.757-8.016,44.8-2S100,72.466,120.72,64.45C137.808,57.757,160.843,23.818,174,15.612Z" transform="translate(693 552)" fill="url(#ae)" style="mix-blend-mode:multiply;isolation:isolate"/><path d="M11.461,11.547c1.306-1.344,0-6.2-1.377-8.114S7.675.226,7.675.226L7.553,0C-.365,3.532,0,14,0,14S10.165,12.891,11.461,11.547Z" transform="translate(959 687)" fill="#141414"/><path d="M13,0A30.4,30.4,0,0,1,6.321,2.661,59.357,59.357,0,0,0,0,4.448s6.209,4.526,9.579,3.36S13,0,13,0Z" transform="translate(936 649)" fill="#141414"/><path d="M15.329,2.393c-.673.312-8.286,9.125-10.305,16.723S-.088,40.021,0,46.523,4.18,61.4,6.4,64.292,25.253,80.02,31.51,80s8.035-7.337,7.352-10.231-4.118-32.924-4.7-41.1.713-18.673,1.256-20.02,2.652-5.2,1.316-5.729a22.959,22.959,0,0,0-21.4-.523Z" transform="translate(894 626)" fill="#f2c475"/><path d="M234,34c-5.506-3.517-11.561-7.114-15.8-8.773-7.454-2.921-27.978-12.32-31.316-14.586S174.006,0,163.9,0,129.93,7.66,118.159,9.936,85.884,13.85,73.723,13.672,39.55,15.082,28.838,17.646c-7.145,1.709-14.439,4.61-19.385,6.21C4.077,26.985,0,29.817,0,29.817S22.153,20.05,55.287,17.894c25.311-1.709,58.595-2.712,70.586-5.355s31.975-9.28,40.639-6.627,13.32,3.309,26.64,9.27C203.214,19.683,224.287,29.43,234,34Z" transform="translate(670 552)" fill="#fff" style="mix-blend-mode:overlay;isolation:isolate"/><circle cx="3" cy="3" r="3" transform="translate(349 255)" fill="#fff" opacity="0.7"/><path d="M17.892,104.864a61.5,61.5,0,1,0,.231-86.96A61.5,61.5,0,0,0,17.892,104.864Z" transform="translate(985 74)" fill="url(#af)"/><path d="M231,0C358.578,0,462,17.013,462,38c0,14.565-123.209,33.618-123.209,33.618S270.039,76,231,76C103.422,76,0,58.987,0,38S103.422,0,231,0Z" transform="translate(98 699)" opacity="0.5" fill="url(#ag)" style="mix-blend-mode:multiply;isolation:isolate"/><path d="M51.983,351s77.1-59.1,98.475-79.23,40.013-50.161,51.184-74.517,36.449-70.134,45.674-81.821,27.214-27.277,27.214-27.277L293,75.978s-10.2-33.111-16.972-48.7A152.677,152.677,0,0,0,260.484,0L238.571,21.924S216.218,11.207,212.335,9.256s-47.131,3.9-63.174,3.9-24.779.48-32.556,3.4-58.312,30.2-75.314,37.5-30.619,15.59-29.64,18.011,17.491,35.072,21.863,34.091S77.73,83.282,93.773,73.536,119.52,59.9,119.52,59.9l40.822,7.3s-11.661,35.562-35.94,65.271-76.772,64.29-95.73,71.1S0,210.882,0,210.882s20.416,45.779,26.735,73.546S45.7,344.816,50.545,350.66" transform="translate(190 194)" fill="url(#ah)"/><path d="M0,20.151c2-.675,26.6,12.091,57.859,10.75s70.827-19.818,70.827-19.818L135,0,11.971,7.728Z" transform="translate(286 334)" fill="url(#ai)" style="mix-blend-mode:multiply;isolation:isolate"/><path d="M137.578,4.295c-16.035,0-24.782.479-32.56,3.39S46.7,37.774,29.694,45.053-.929,60.586.05,63c.1.269,98.348-51.655,110.829-53.65s76.173-7.518,87.505-2.991,26.319,9.97,26.319,9.97l2.3-3.31S204.644,2.34,200.76.4,153.623,4.295,137.578,4.295Z" transform="translate(202 203)" fill="url(#aj)"/><path d="M12.524.042C12.128-.915,0,14.757,0,14.757S7.242,26.206,12.189,30.782A29.691,29.691,0,0,0,22.408,37L29,28.494S17.136,11.491,12.524.042Z" transform="translate(191 269)" fill="url(#ak)"/><path d="M54.077,0s-9.2,8.526-12.826,9.006S22.619,6.814,19.716,7.055,6.4,16.561,3.022,19.473-.617,24.836.845,25.317s3.868-.48,3.868-.48S6.4,28,9.306,28.238s15.49-4.133,22.987-3.4,20.084,3.4,23.474,4.863,8.948,9.746,12.1,11.207,7.745,2.191,5.568-2.682-7.278-12.648-7.278-16.551,1.7-10.717,1.7-10.717S59.4,7.3,54.077,0Z" transform="translate(144 294)" fill="url(#al)"/><path d="M0,155s18.129-.65,28.166-2a110.035,110.035,0,0,0,15.545-2.918,51.132,51.132,0,0,1,4.849-12.641c3.562-6.485,25.582-46.367,33.993-59.018A216.187,216.187,0,0,1,98.416,57.349S109.1,34.366,113.641,27.191,123,12.331,123,12.331L109.032,0S89.287,10.053,74.72,26.591,28.745,99.879,21.94,115.438A271,271,0,0,1,0,155Z" transform="translate(371 273)" fill="url(#am)"/><path d="M0,74.193s4.548,31.063,8.776,43.688,6.822,22.328,11.371,25.24S105,147,105,147s-7.153-22-6.5-35.272.321-20.054.321-20.054-22.751-.648-37.378-1.625-16.259-1-18.213-2.264-3.9-11.648-5.52-18.119-5.209-38.184-6.5-47.228S28.492,0,28.492,0,16.57,21.131,10.719,35.4,0,74.193,0,74.193Z" transform="translate(474 292)" fill="url(#an)"/><path d="M0,155s18.129-.65,28.166-2a110.035,110.035,0,0,0,15.545-2.918,51.132,51.132,0,0,1,4.849-12.641c3.562-6.485,25.582-46.367,33.993-59.018A216.187,216.187,0,0,1,98.416,57.349S109.1,34.366,113.641,27.191,123,12.331,123,12.331L109.032,0S89.287,10.053,74.72,26.591,28.745,99.879,21.94,115.438A271,271,0,0,1,0,155Z" transform="translate(371 273)" fill="url(#ao)"/><path d="M0,28s18.515-3.938,31.526-9.845,19.016-11,19.016-11l5.675.335L61,0,50.281.985,5.835,19.326Z" transform="translate(417 312)" fill="url(#ap)" style="mix-blend-mode:multiply;isolation:isolate"/><path d="M30.1,8.8S8.561,40.052,3.343,63.81.407,113.974,1.061,119.162,3.011,140,3.011,140,9.867,86.284,16.392,66.1,35.966,19.865,39.515,18.24,63,17.909,63,17.909s-.322-6.832-4.243-12.04S53.54,0,53.54,0s-9.46,12.371-13.7,11.036A97.224,97.224,0,0,0,30.1,8.8Z" transform="translate(464 276)" fill="url(#aq)"/><path d="M51.6,83.712s-.318,43.476.646,53.855,5.8,24.338,7.424,33.1-3.23,16.229-2.584,15.249S30.966,150.227,21.307,135.3,3.568,104.8,3.25,101.881s.318-5.19-.994-7.139S0,92.792,0,92.792s.239-2.51,4.184-10.7C9.52,71.034,19.9,51.945,29.337,36.667,45.784,10.059,54.489,0,54.489,0s-6.45,31.8-5.158,49.646,2.912,32.787,2.912,32.787Z" transform="translate(415 330)" fill="#141414"/><path d="M0,56.931c1.936-.651,27.522-22.754,31.4-25.36s25.586-5.531,54.076-1,55.043,14.949,90.668.651c17.074-6.863,15.866-9.428,15.866-9.428l6.147-9.759-.319-10.4L201.074,0s6.7,11.022,11.286,14.088c2.994,2,9.64-2.345,9.64-2.345L210.145,32.513l-10.687,1S177.115,49.767,141.5,59.847,79.631,77.4,58.277,75.778s-29.138-5.851-40.145-9.749A77.462,77.462,0,0,1,0,56.931Z" transform="translate(268 279)" fill="#141414"/><path d="M.6.33,12.4,0s-.738,15.9-.081,24.34S17,46.73,17,46.73L4.871,49A151.64,151.64,0,0,1,.283,1.62" transform="translate(573 384)" fill="url(#ar)"/><path d="M3.6,16A18.1,18.1,0,0,0,6.683,8.617,55.993,55.993,0,0,0,6.936,0L0,.738Z" transform="translate(586 414)" fill="#141414"/><path d="M.56,21.825A118.858,118.858,0,0,0,1.676,53.234l6.547-.725,3.4-4.834a21.981,21.981,0,0,0,2.91,4.834,12.086,12.086,0,0,0,6.059,4.348l-.239,1.985s5.331,2.9,8.969,3.137,7.972-1.688,10.434-2.412,5.82-9.182,7.972-12.081,2.422-6.77,4.126-9.669,3.877-6.036,2.91-10.622S42.384,18.976,39,17.269,25.653,6.151,23.47,3.738,17.65-1.821,14.5,1.316,8.193,16.782,6.977,18.47.43,22.818.43,22.818" transform="translate(584 362)" fill="url(#as)"/><path d="M0,94,7.79,73.2s-3.65-12.473,3.4-35.952S29.932,1.292,38.7.065s14.111,14.925,7,37.188S31.1,68.31,25.992,72.431s-12.9,4.4-12.9,4.4L9.731,92.512Z" transform="translate(608 285)" fill="#141414"/><path d="M2.6,0S-.446,11.114.056,12.563,6.6,17.286,8.7,15.46A10.074,10.074,0,0,0,12,9.179S3.867,4.346,2.6,0Z" transform="translate(593 409)" fill="#141414"/><path d="M26.656,35.623C19.48,52.862,9.112,65,3.5,62.727s-4.328-18.1,2.858-35.348S23.9-2.006,29.5.275,33.842,18.375,26.656,35.623Z" transform="translate(619 291)" fill="url(#at)"/><path d="M6.019,264.544c5.512-9.413,52.258-69.132,63.292-82.446s10.714-17.846,12-31.81,1.671-45.444,1.671-45.444,56.48-44.794,73.686-59.719S189.784,4.872,189.784,4.872s6.812-.32,15.906-.65S233.609,0,233.609,0l1.29,1c1.3,1,1.631,3.241,1.631,6.162s4.542,11.364,7.463,18.176,40.254,56.808,46.1,65.891,46.086,58.429,49.658,66.551-.67,14.915-10.424,27.239-39.264,58.759-40.9,62.7,4.552,6.172,5.852,8.443.64,15.255.64,18.5-2.921,6.822-4.211,8.443-1,4.872-1,4.872-16.226,11.684-24.008,13.954-17.206,9.733-19.157,10.063-4.862-6.822-5.192-11,3.251-8.443,5.522-14,3.891-21.417,12-51.286,25.639-69.782,25.639-70.762-7.143-4.541-15.255-9.083-21.748-14.6-38.013-26.618-53.879-43.174-57.78-44.474-10.7,2.931-14.925,9.423-15.255,42.513-19.807,56.478-11.684,27.269-24.339,42.844-54.859,55.178-59.081,61.349-7.463,17.856-7.143,22.717-4.221,11-6.162,12-10.064,4.541-18.827,3.241S2.718,285.351,1.1,285.03c0,0-1.951-8.123-.65-11.364S6.019,264.544,6.019,264.544Z" transform="translate(181 423)" fill="#3a3836"/><path d="M0,45.854a321.039,321.039,0,0,0,46.781-2.007C69.691,40.918,77,38.47,77,38.47S44.468,10.69,37.369,6.135,27.3-1.681,21.768.928,13.648,9.385,9.753,16.549,0,45.854,0,45.854Z" transform="translate(327 507)" fill="#141414"/><path d="M40.318,9.155C31.607,7.866,20,1.7,18.4,1.379c0,0-.129-.54-.3-1.379C17.034,2.049,13.13,9.525,8.73,17.271,3.565,26.346-.3,37.38.018,40.948s8.712,10.994,19.34,6.806S35.153,36.4,41.6,30.564,50.3,16.941,50.947,15A37.1,37.1,0,0,0,52,8.436a30.344,30.344,0,0,1-11.682.72Z" transform="translate(164 706)" fill="#141414"/><path d="M.032,44.379C-1.459,45.089,49.391,59.948,102,74.857s88.981,18.806,89.962,19.136S172.8,83.291,163.7,77.455s-21.427-12.321-21.427-12.321-1-15.888-1.3-26.92-2.922-22.693-6.5-25.291S101.353,1.931,92.266.6,77.974.012,75.382,4.169,65.314,27.152,61.371,33.357s-7.106,12.621-8.076,12.621c-.277,0-4.167-.394-10.051-.908C29.547,43.873,4.912,42.057.032,44.379Z" transform="translate(408 133)" fill="#f3c52a"/><path d="M7.143,0S37.657,8.95,55.515,10.83,87.329,15.3,88.3,16.58s.65,13.42.65,13.42-25.011-2.875-47.4-7.355A313.715,313.715,0,0,1,0,11.165S1.3,8.31,7.143,0Z" transform="translate(461 167)" fill="#d65a33"/><path d="M0,0S14.254,8.859,25.227,13.254,41.416,18,41.416,18L44,13.566Z" transform="translate(408 177)" fill="url(#au)"/><path d="M1.3,0,0,6.159S25.256,12,36.572,12A92.087,92.087,0,0,0,56,10.058S12.3,3.229,1.3,0Z" transform="translate(543 216)" fill="url(#av)"/><path d="M93.746,25.536c1.637.2-5.18,13.246-5.18,16.483s-.649,13.893,1,18.744,3.563,14.222-1.3,15.188S79.524,74.009,76.61,75.3s-7.775,7.43-11.338,10.667S56.849,96.308,52.966,95.99,43.255,94,39.992,91.787,29.3,81.439,29.3,81.439l3.244-2.908S23.474,48.8,17.326,34.261,0,2.908,0,2.908L1.128,0S80.462,23.913,93.746,25.536Z" transform="translate(451 191)" fill="url(#aw)"/><path d="M4.346,9.148c2.268-.33,4.536-4.539,9.4-4.219S23.8,8.5,23.8,14.987,18.932,38.7,18.932,38.7L22.818,49.08,33.228,51s1.3-18.5,3.886-25.995,3.886-13,3.886-13S15.025,4.549,8.592,2.27,1.129,0,1.129,0L0,2.919Z" transform="translate(451 191)" fill="#141414"/><path d="M93.052,11.743C90.622,5.406,84.8,7.358,75.589,6.867s-13.09,1-21.816-2S38.741,0,38.741,0,22.583,11.693,14.833,13.965C9.723,15.467,3.925,19.2,0,21.683c.159.931.926,4.2,3.845,4.625,3.387.491,31.031.491,39.757.491s30.543,1,40.245-1.462S95.473,18.079,93.052,11.743Z" transform="translate(432 711)" fill="#141414"/><path d="M0,2.527S37.3,9.1,46.872,13.642,63,48,63,48s-.907-33.5-5.494-35.954S19.152,0,12.1,0A29.461,29.461,0,0,0,0,2.527Z" transform="translate(485 133)" fill="url(#ax)"/><path d="M14.054,0S25.628,26.08,31.119,42.5c6.354,19,8.533,30.5,8.533,30.5s-17.9,11.67-24.594,19S0,112,0,112,18.481,91.81,29.734,85.24,47,74.24,47,74.24,32.625,22.5,14.054,0Z" transform="translate(436 195)" opacity="0.6" fill="url(#ay)"/><path d="M0,0,55,1.573,54.437,6,0,0Z" transform="translate(518 383)" fill="url(#az)"/><circle cx="2" cy="2" r="2" transform="translate(825 140)" fill="#fff"/><circle cx="2" cy="2" r="2" transform="translate(950 249)" fill="#fff"/><circle cx="2" cy="2" r="2" transform="translate(1235 160)" fill="#fff"/><circle cx="2" cy="2" r="2" transform="translate(742 275)" fill="#fff"/><circle cx="2" cy="2" r="2" transform="translate(610 254)" fill="#fff"/><circle cx="2" cy="2" r="2" transform="translate(1123 361)" fill="#fff"/></g><g transform="matrix(1, 0, 0, 1, 0, 0)" filter="url(#ba)"><text transform="translate(742 515)" fill="#f5f5f5" font-size="216" font-family="BebasNeue-Regular, Bebas Neue"><tspan x="0" y="0">404</tspan></text></g><text transform="translate(764 563)" fill="#f5f5f5" font-size="36" font-family="LaBelleAurore, La Belle Aurore"><tspan x="0" y="0">page not found</tspan></text></g></svg>